<?xml version="1.0" encoding="utf-8"?>
<!-- Generator: Adobe Illustrator 17.0.0, SVG Export Plug-In . SVG Version: 6.00 Build 0)  -->
<!DOCTYPE svg PUBLIC "-//W3C//DTD SVG 1.1//EN" "http://www.w3.org/Graphics/SVG/1.1/DTD/svg11.dtd">
<svg version="1.1" id="Layer_1" xmlns="http://www.w3.org/2000/svg" xmlns:xlink="http://www.w3.org/1999/xlink" x="0px" y="0px"
	 width="75px" height="75px" viewBox="25 12 75 75"
	 xml:space="preserve">
<g enable-background="new    ">
	<path fill="#FFFFFF" d="M98.727,30.299v34.286c0,1.042-0.268,2.009-0.804,2.902c-0.536,0.893-1.265,1.592-2.188,2.098
		L64.307,86.727c-0.833,0.477-1.741,0.715-2.723,0.715c-0.982,0-1.891-0.238-2.724-0.715L27.433,69.585
		c-0.923-0.506-1.652-1.205-2.188-2.098c-0.536-0.894-0.804-1.86-0.804-2.902V30.299c0-1.19,0.342-2.277,1.027-3.26
		c0.684-0.981,1.592-1.681,2.723-2.098L59.62,13.513c0.654-0.238,1.309-0.357,1.964-0.357c0.654,0,1.309,0.119,1.964,0.357
		l31.429,11.429c1.131,0.417,2.038,1.116,2.723,2.098C98.385,28.022,98.727,29.109,98.727,30.299z M61.585,41.549l31.16-11.34
		l-31.16-11.339L30.424,30.209L61.585,41.549z M64.442,80.165l28.57-15.58V36.192l-28.57,10.401V80.165z"/>
</g>
</svg>
