<?xml version="1.0" encoding="UTF-8"?>
<!DOCTYPE svg PUBLIC "-//W3C//DTD SVG 1.1//EN" "http://www.w3.org/Graphics/SVG/1.1/DTD/svg11.dtd">
<!-- Creator: CorelDRAW X7 -->
<svg xmlns="http://www.w3.org/2000/svg" xml:space="preserve" width="882px" height="712px" version="1.1" style="shape-rendering:geometricPrecision; text-rendering:geometricPrecision; image-rendering:optimizeQuality; fill-rule:evenodd; clip-rule:evenodd"
viewBox="0 0 69 56"
 xmlns:xlink="http://www.w3.org/1999/xlink">
 <defs>
  <style type="text/css">
   <![CDATA[
    .fil0 {fill:#FEFEFE}
   ]]>
  </style>
 </defs>
 <g id="Layer_x0020_1">
  <metadata id="CorelCorpID_0Corel-Layer"/>
  <path class="fil0" d="M1 35c9,2 18,1 27,1 2,2 4,4 6,4 3,0 5,-2 7,-4 8,0 17,1 26,-1 0,6 1,11 0,16 0,3 -4,5 -6,5 -18,0 -35,0 -53,0 -3,0 -6,-2 -6,-5 -1,-5 0,-10 -1,-16zm32 -6c5,-1 7,7 2,8 -4,2 -6,-6 -2,-8zm-9 -20c7,0 14,0 21,0 -2,-2 -4,-4 -6,-4 -5,0 -12,-2 -15,4zm-5 0c1,-4 4,-8 9,-9 5,0 10,0 14,1 5,0 7,4 8,8 5,0 11,-1 16,0 4,2 2,8 3,12 0,4 1,10 -4,11 -8,0 -16,0 -24,0 -1,-3 -3,-6 -7,-6 -3,0 -5,3 -6,6 -7,0 -15,0 -23,0 -2,0 -5,-3 -5,-5 0,-5 0,-9 0,-13 0,-3 3,-5 5,-5 5,0 9,0 14,0z"/>
 </g>
</svg>
