<?xml version="1.0" encoding="UTF-8"?>
<!DOCTYPE svg PUBLIC "-//W3C//DTD SVG 1.1//EN" "http://www.w3.org/Graphics/SVG/1.1/DTD/svg11.dtd">
<!-- Creator: CorelDRAW X7 -->
<svg xmlns="http://www.w3.org/2000/svg" xml:space="preserve" width="880px" height="880px" version="1.1" style="shape-rendering:geometricPrecision; text-rendering:geometricPrecision; image-rendering:optimizeQuality; fill-rule:evenodd; clip-rule:evenodd"
viewBox="0 0 255 255"
 xmlns:xlink="http://www.w3.org/1999/xlink">
 <defs>
  <style type="text/css">
   <![CDATA[
    .fil0 {fill:#FEFEFE}
   ]]>
  </style>
 </defs>
 <g id="Layer_x0020_1">
  <metadata id="CorelCorpID_0Corel-Layer"/>
  <path class="fil0" d="M196 88c-14,6 -15,27 -3,35 13,11 34,0 34,-16 1,-15 -18,-28 -31,-19zm-158 1c-13,8 -12,28 1,36 13,8 32,-2 32,-18 1,-16 -20,-29 -33,-18zm112 -56c-12,8 -10,28 2,35 13,9 32,-2 32,-17 2,-17 -20,-30 -34,-18zm-71 0c-11,8 -10,27 2,34 12,10 32,-1 32,-16 2,-17 -21,-30 -34,-18zm43 -33l14 0c58,2 117,48 119,109l0 10c-2,24 -16,47 -38,58 -18,10 -39,7 -59,8 -11,0 -20,9 -20,20 1,10 10,19 11,30 0,10 -9,16 -17,20l-12 0c-48,-2 -94,-34 -111,-80 -16,-41 -10,-89 16,-124 23,-30 59,-49 97,-51z"/>
 </g>
</svg>
