<?xml version="1.0" encoding="UTF-8"?>
<!DOCTYPE svg PUBLIC "-//W3C//DTD SVG 1.1//EN" "http://www.w3.org/Graphics/SVG/1.1/DTD/svg11.dtd">
<!-- Creator: CorelDRAW X7 -->
<svg xmlns="http://www.w3.org/2000/svg" xml:space="preserve" width="880px" height="703px" version="1.1" style="shape-rendering:geometricPrecision; text-rendering:geometricPrecision; image-rendering:optimizeQuality; fill-rule:evenodd; clip-rule:evenodd"
viewBox="0 0 52 41"
 xmlns:xlink="http://www.w3.org/1999/xlink">
 <defs>
  <style type="text/css">
   <![CDATA[
    .fil0 {fill:#FEFEFE}
   ]]>
  </style>
 </defs>
 <g id="Layer_x0020_1">
  <metadata id="CorelCorpID_0Corel-Layer"/>
  <path class="fil0" d="M34 12c-1,1 0,3 1,4 1,0 3,-1 3,-2 0,-2 -2,-3 -4,-2zm-2 2c-1,-4 5,-6 7,-3 3,4 -1,8 -3,10 -2,-2 -4,-4 -4,-7zm-25 3c0,6 0,12 0,18 11,0 22,0 32,0 2,0 6,1 5,-3 -3,-2 -6,-4 -9,-6 -6,-1 -12,0 -19,-1 -3,-2 -6,-5 -9,-8zm-4 2c-2,0 -2,4 1,3 2,0 2,-4 -1,-3zm44 -3c-1,2 -1,5 -1,7 0,2 2,3 3,2 1,-2 1,-5 1,-7 0,-2 -2,-3 -3,-2zm-20 -10c0,3 2,7 -1,9 -6,1 -11,0 -16,0 2,3 5,6 8,7 6,1 12,0 18,1 3,1 5,4 8,5 0,-7 1,-14 0,-22 -5,0 -11,0 -17,0zm-20 0c0,2 0,4 0,6 6,0 12,0 17,0 0,-2 0,-4 0,-6 -5,0 -11,0 -17,0zm-7 -5c2,-1 5,-1 7,-1 14,0 28,0 42,0 2,0 3,2 3,3 0,12 0,24 0,36 0,2 -3,2 -4,2 -15,0 -29,0 -44,0 -2,0 -3,0 -4,-2l0 -38z"/>
 </g>
</svg>
