<?xml version="1.0" encoding="utf-8"?>
<!-- Generator: Adobe Illustrator 17.0.0, SVG Export Plug-In . SVG Version: 6.00 Build 0)  -->
<!DOCTYPE svg PUBLIC "-//W3C//DTD SVG 1.1//EN" "http://www.w3.org/Graphics/SVG/1.1/DTD/svg11.dtd">
<svg version="1.1" id="Capa_1" xmlns="http://www.w3.org/2000/svg" xmlns:xlink="http://www.w3.org/1999/xlink" x="0px" y="0px"
  width="576pt" height="432pt" viewBox="-120 0 776 600"
	 xml:space="preserve">
<g>
	<path fill="#FFFFFF" d="M256.003,343.727L-5.914,263.113v79.31v55.328c0,62.244,117.303,112.709,261.995,112.709
		c144.684,0,262.007-50.465,262.007-112.709c0-0.49-0.161-0.982-0.171-1.461V263.113L256.003,343.727z"/>
	<path fill="#FFFFFF" d="M-183,170.432l93.569,33.471l7.974-17.078l34.375-2.922l4.901,5.1l-29.497,6.995l-4.299,12.724
		c-0.008,0-66.628,139.277-56.844,207.413c0,0,41.585,24.805,83.151,0l11.046-186.289V214.34l61.874-13.958l-4.37,10.761
		l-46.133,15.002l21.337,7.622l261.916,80.614l261.914-80.614L695,170.433L256.002,1.539L-183,170.432z"/>
</g>
</svg>
