<?xml version="1.0" encoding="UTF-8"?>
<!DOCTYPE svg PUBLIC "-//W3C//DTD SVG 1.1//EN" "http://www.w3.org/Graphics/SVG/1.1/DTD/svg11.dtd">
<!-- Creator: CorelDRAW X7 -->
<svg xmlns="http://www.w3.org/2000/svg" xml:space="preserve" width="877px" height="853px" version="1.1" style="shape-rendering:geometricPrecision; text-rendering:geometricPrecision; image-rendering:optimizeQuality; fill-rule:evenodd; clip-rule:evenodd"
viewBox="0 0 1194 1161"
 xmlns:xlink="http://www.w3.org/1999/xlink">
 <defs>
  <style type="text/css">
   <![CDATA[
    .fil0 {fill:#FEFEFE}
   ]]>
  </style>
 </defs>
 <g id="Layer_x0020_1">
  <metadata id="CorelCorpID_0Corel-Layer"/>
  <path class="fil0" d="M946 904c-23,38 -24,97 0,135 44,13 116,29 143,-20 -1,-40 20,-101 -28,-121 -38,-6 -78,-8 -115,6zm-829 4c-27,38 -32,143 37,141 35,-1 91,13 106,-32 1,-37 12,-82 -13,-114 -41,-10 -94,-21 -130,5zm832 -271c-28,38 -27,99 -3,138 37,16 79,10 117,6 44,-25 26,-84 25,-124 -30,-44 -95,-29 -139,-20zm-834 6c-22,42 -31,141 38,141 36,-1 91,13 107,-31 1,-37 12,-81 -13,-113 -40,-15 -94,-20 -132,3zm833 -270c-27,38 -26,100 0,138 44,9 110,25 140,-19 1,-41 20,-101 -25,-124 -38,-5 -79,-10 -115,5zm-833 5c-21,42 -32,142 39,141 35,-2 90,13 105,-30 1,-40 21,-108 -32,-122 -37,-3 -80,-12 -112,11zm829 -267c-20,40 -22,96 3,135 45,9 109,25 141,-18 1,-41 20,-103 -25,-125 -39,-5 -83,-11 -119,8zm-830 3c-17,41 -27,107 14,137 46,3 136,22 134,-49 -2,-34 12,-91 -34,-100 -38,-2 -83,-13 -114,12zm-74 -8c10,-54 51,-112 113,-105 296,-1 593,-1 889,0 62,-8 103,50 114,104 50,309 51,627 0,936 -14,46 -30,106 -92,108 -147,3 -443,9 -591,12l144 0c-121,-3 -365,-9 -486,-12 -94,-21 -95,-131 -106,-206 -38,-278 -32,-561 15,-837z"/>
 </g>
</svg>
