<?xml version="1.0" encoding="UTF-8"?>
<!DOCTYPE svg PUBLIC "-//W3C//DTD SVG 1.1//EN" "http://www.w3.org/Graphics/SVG/1.1/DTD/svg11.dtd">
<svg xmlns="http://www.w3.org/2000/svg" xml:space="preserve" width="47px" height="47px" version="1.1" style="shape-rendering:geometricPrecision; text-rendering:geometricPrecision; image-rendering:optimizeQuality; fill-rule:evenodd; clip-rule:evenodd"
viewBox="0 0 828 828"
 xmlns:xlink="http://www.w3.org/1999/xlink">
 <defs>
  <style type="text/css">
   <![CDATA[
    .str0 {stroke:#EBEBEB;stroke-width:13.5812}
    .fil1 {fill:#004667}
    .fil2 {fill:#239ED8}
    .fil0 {fill:white}
   ]]>
  </style>
 </defs>
 <g id="Layer_x0020_1">
  <metadata id="logo-faranesh"/>
  <path class="fil0 str0" d="M62 7l705 0c14,1 27,6 37,16 11,10 17,24 18,38l0 706c-1,15 -8,30 -20,40 -10,9 -22,14 -35,15l-705 0c-14,-1 -27,-7 -37,-16 -11,-10 -17,-24 -18,-39l0 -706c1,-14 7,-28 18,-38 10,-10 23,-16 37,-16z"/>
  <g id="_2415468510416">
   <path class="fil1" d="M466 534c-52,53 -104,106 -155,159 -4,-1 -8,-1 -12,-1 -50,0 -100,0 -149,-1 -7,0 -14,1 -21,0 3,-1 5,-3 7,-5 43,-44 86,-87 129,-131 27,-28 55,-56 82,-84 0,0 -1,-2 -1,-2 -48,-49 -97,-99 -145,-148 -21,-22 -42,-43 -63,-65 -2,-2 -4,-5 -7,-7 11,-1 22,0 33,0 28,0 57,0 85,0 6,0 13,0 19,0 14,1 29,0 43,1 1,-1 2,0 3,1 13,13 26,26 39,40 2,2 3,4 6,6 2,2 5,4 7,7 55,55 109,111 164,166 -19,19 -37,38 -56,56 -3,2 -5,6 -8,8z"/>
   <path class="fil2" d="M362 294c52,-52 104,-105 156,-158 4,0 8,0 12,0 49,1 99,1 149,1 7,0 14,0 20,0 -3,1 -5,4 -7,6 -43,43 -86,87 -128,131 -28,27 -55,55 -83,83 1,1 1,2 1,3 49,49 97,98 145,148 21,21 42,43 63,64 2,3 5,5 7,8 -11,0 -22,0 -33,0 -28,0 -56,0 -85,0 -6,-1 -12,0 -18,-1 -15,0 -29,0 -44,0 -1,0 -2,-1 -2,-2 -13,-13 -26,-26 -39,-39 -2,-2 -4,-5 -6,-6 -3,-2 -5,-5 -8,-7 -54,-56 -109,-111 -163,-167 18,-18 37,-37 55,-56 3,-2 6,-5 8,-8z"/>
  </g>
 </g>
</svg>
