<?xml version="1.0" encoding="UTF-8"?>
<!DOCTYPE svg PUBLIC "-//W3C//DTD SVG 1.1//EN" "http://www.w3.org/Graphics/SVG/1.1/DTD/svg11.dtd">
<!-- Creator: CorelDRAW X7 -->
<svg xmlns="http://www.w3.org/2000/svg" xml:space="preserve" width="35px" height="35px" version="1.1" style="shape-rendering:geometricPrecision; text-rendering:geometricPrecision; image-rendering:optimizeQuality; fill-rule:evenodd; clip-rule:evenodd"
viewBox="0 0 143 154"
 xmlns:xlink="http://www.w3.org/1999/xlink">
 <defs>
  <style type="text/css">
   <![CDATA[
    .fil0 {fill:#FFFFFF}
   ]]>
  </style>
 </defs>
 <g id="Layer_x0020_1">
  <metadata id="CorelCorpID_0Corel-Layer"/>
  <g id="_2491995268896">
   <g>
    <g>
     <path class="fil0" d="M71 0l1 0c2,0 3,1 4,2 10,7 21,13 32,17 9,3 19,6 29,7 3,0 6,2 6,5l0 12c0,11 -2,23 -4,34 -2,9 -5,18 -9,27 -4,8 -8,15 -13,22 -5,6 -11,11 -17,16 -7,5 -15,8 -23,11 -1,0 -3,1 -4,1l-3 0c-12,-3 -23,-9 -33,-17 -8,-7 -15,-16 -20,-26 -6,-11 -10,-23 -13,-36 -3,-14 -4,-28 -4,-42 0,-2 0,-3 1,-5 2,-1 4,-2 6,-2 10,-1 21,-4 31,-8 11,-4 21,-10 31,-17 1,-1 1,-1 2,-1l0 0zm-10 79c0,2 0,4 0,6 -1,0 -3,0 -4,0 -2,0 -3,2 -3,3 0,9 0,17 0,26 -1,2 1,3 3,3 10,0 19,0 29,0 2,0 3,-1 3,-3 0,-9 0,-17 0,-26 0,-1 -1,-3 -3,-3 -1,0 -3,0 -4,0 0,-2 0,-4 0,-6 0,-1 -1,-2 -2,-2 -6,0 -12,0 -17,0 -1,0 -2,1 -2,2l0 0z"/>
    </g>
   </g>
  </g>
 </g>
</svg>
