<?xml version="1.0" encoding="UTF-8"?>
<!DOCTYPE svg PUBLIC "-//W3C//DTD SVG 1.1//EN" "http://www.w3.org/Graphics/SVG/1.1/DTD/svg11.dtd">
<!-- Creator: CorelDRAW X7 -->
<svg xmlns="http://www.w3.org/2000/svg" xml:space="preserve" width="880px" height="681px" version="1.1" style="shape-rendering:geometricPrecision; text-rendering:geometricPrecision; image-rendering:optimizeQuality; fill-rule:evenodd; clip-rule:evenodd"
viewBox="0 0 102 79"
 xmlns:xlink="http://www.w3.org/1999/xlink">
 <defs>
  <style type="text/css">
   <![CDATA[
    .fil0 {fill:#FEFEFE}
   ]]>
  </style>
 </defs>
 <g id="Layer_x0020_1">
  <metadata id="CorelCorpID_0Corel-Layer"/>
  <path class="fil0" d="M66 24c-4,-6 3,-15 9,-12 7,5 13,11 20,16 3,3 7,5 7,9 0,5 -4,7 -7,10 -7,5 -13,11 -20,15 -6,3 -13,-5 -8,-11 4,-5 10,-9 15,-14 -5,-4 -11,-8 -16,-13zm-45 -8c3,-3 7,-6 11,-4 5,2 6,8 3,12 -5,5 -10,9 -16,13 6,5 13,9 17,15 4,7 -5,14 -11,10 -8,-6 -15,-13 -22,-19 -4,-3 -4,-8 0,-11 6,-6 12,-11 18,-16zm31 -14c5,-5 13,0 12,7 -4,22 -8,43 -13,65 -2,8 -15,6 -15,-2 3,-20 8,-39 11,-59 1,-4 1,-9 5,-11z"/>
 </g>
</svg>
