<?xml version="1.0" encoding="UTF-8"?>
<!DOCTYPE svg PUBLIC "-//W3C//DTD SVG 1.1//EN" "http://www.w3.org/Graphics/SVG/1.1/DTD/svg11.dtd">
<!-- Creator: CorelDRAW X7 -->
<svg xmlns="http://www.w3.org/2000/svg" xml:space="preserve" width="881px" height="758px" version="1.1" style="shape-rendering:geometricPrecision; text-rendering:geometricPrecision; image-rendering:optimizeQuality; fill-rule:evenodd; clip-rule:evenodd"
viewBox="0 0 199 171"
 xmlns:xlink="http://www.w3.org/1999/xlink">
 <defs>
  <style type="text/css">
   <![CDATA[
    .fil0 {fill:#FEFEFE}
   ]]>
  </style>
 </defs>
 <g id="Layer_x0020_1">
  <metadata id="CorelCorpID_0Corel-Layer"/>
  <path class="fil0" d="M138 66c11,0 22,0 33,0 0,13 0,27 0,41 -11,0 -22,0 -33,0 0,-14 0,-28 0,-41zm-110 0c33,0 66,0 99,0 0,13 0,27 0,41 -33,0 -66,0 -99,-1 0,-13 0,-27 0,-40zm0 -40c48,-1 95,-1 143,0 0,10 0,20 0,30 -48,1 -95,1 -143,0 0,-10 0,-20 0,-30zm-13 -12c0,35 0,69 0,103 56,0 113,0 169,0 0,-34 0,-68 0,-103 -56,0 -113,0 -169,0zm-15 -4c-1,-7 6,-10 12,-10 58,0 116,0 175,0 5,-1 12,3 12,10 0,36 0,72 0,108 1,6 -2,13 -9,13 -23,1 -45,0 -68,1 0,7 0,14 0,21 10,1 22,-1 32,2 7,6 1,18 -7,16 -32,0 -63,0 -95,0 -9,2 -14,-11 -7,-16 10,-3 21,-1 32,-2 0,-7 0,-14 0,-21 -23,-1 -45,0 -68,-1 -5,1 -9,-4 -9,-9 0,-38 0,-75 0,-112z"/>
 </g>
</svg>
